<?xml version="1.0" encoding="utf-8"?>
<!-- Svg Vector Icons : http://www.onlinewebfonts.com/icon -->
<!DOCTYPE svg PUBLIC "-//W3C//DTD SVG 1.1//EN" "http://www.w3.org/Graphics/SVG/1.1/DTD/svg11.dtd">
<svg version="1.1" xmlns="http://www.w3.org/2000/svg" xmlns:xlink="http://www.w3.org/1999/xlink" x="0px" y="0px" viewBox="0 0 1000 1000" enable-background="new 0 0 1000 1000" xml:space="preserve">
<metadata> Svg Vector Icons : http://www.onlinewebfonts.com/icon </metadata>
<g><g transform="translate(0.000000,511.000000) scale(0.100000,-0.100000)"><path d="M167.1,3835.3c-26.8-24.9-55.6-67-61.3-91.9c-5.7-24.9-7.7-959.6-3.8-2074.4c7.7-2208.5,7.7-2214.2,120.7-2660.5c208.8-833.2,701.1-1300.6,1496-1419.4c381.2-57.5,681.9-30.6,971.1,88.1c293.1,122.6,557.4,304.5,1122.4,775.8c503.8,419.5,672.3,544,875.4,643.6c151.3,74.7,178.1,82.4,312.2,82.4s160.9-7.6,308.4-80.4c203-101.5,386.9-235.6,879.2-645.5c624.4-521,898.3-701.1,1239.3-816c224.1-74.7,467.4-93.8,768.1-59.4c842.8,97.7,1367.6,572.7,1584.1,1434.6c111.1,442.5,111.1,450.1,118.8,2664.4c5.7,1547.7,1.9,2051.4-15.3,2093.6c-30.7,76.6-88.1,111.1-183.9,111.1c-126.4,0-176.2-55.5-206.8-233.7c-32.6-187.7-90-300.7-214.5-429.1c-185.8-189.6-490.4-360.1-997.9-563.1l-272-109.2l143.7-111.1c607.2-463.5,858.1-1260.4,628.3-1990.1C8572-212,8007-702.4,7332.7-811.6c-229.9-38.3-597.6-15.3-810.2,47.9c-505.7,149.4-929,515.3-1149.3,994.1c-111.1,237.5-145.6,392.7-157.1,699.1l-11.5,277.7l-59.4-67c-32.6-36.4-78.5-90-103.4-122.6l-42.1-57.5l-42.1,57.5c-24.9,32.6-74.7,90-111.1,130.2l-67,74.7l-3.8-247.1C4771.8,596.3,4676,280.3,4473-26.2C4289.1-304,3957.8-574,3655.1-694.7c-279.6-113-360.1-126.4-714.5-124.5c-296.9,0-340.9,5.7-494.2,51.7C2138.1-673.6,1915.9-543.4,1688-325c-408,392.7-601.4,909.8-555.5,1482.5c23,273.9,101.5,517.2,254.7,777.7c93.9,157.1,352.4,436.7,499.9,540.2l105.3,72.8l-272,107.3c-494.2,193.5-808.3,371.6-997.9,563.1C596.2,3346.9,542.5,3456,510,3645.7c-21.1,118.8-36.4,157.1-76.6,191.5C360.6,3898.5,234.2,3898.5,167.1,3835.3z"/><path d="M4243.2,3247.3c-521-47.9-1202.9-168.6-1664.5-295c-137.9-38.3-250.9-70.9-256.7-74.7c-7.7-9.6,42.1-26.8,551.6-205c1030.5-360.1,1641.5-660.8,2016.9-996l111.1-97.7l80.4,74.7c367.8,339,946.2,632.1,1948,984.5c205,72.8,438.6,155.1,517.2,183.9l143.7,51.7l-143.7,44.1c-363.9,111.1-997.9,237.5-1532.3,304.6C5714.2,3258.7,4555.4,3276,4243.2,3247.3z"/><path d="M2394.8,2295.3c-178.1-76.6-335.2-189.6-478.9-342.9c-151.3-160.9-252.8-329.5-319.9-532.5c-46-137.9-51.7-180-51.7-431c0-250.9,5.7-293.1,51.7-431c128.3-386.9,448.2-731.7,814.1-881.1c306.5-124.5,683.8-137.9,986.4-32.6c237.5,80.4,362,160.9,559.3,358.2c139.8,137.9,189.6,205,254.8,335.2c195.4,390.7,210.7,844.7,42.1,1218.2l-53.6,118.8l-273.9,134.1c-151.3,74.7-385,178.1-517.2,231.8c-302.6,118.8-833.2,308.4-865.8,308.4C2530.8,2348.9,2463.7,2324,2394.8,2295.3z M3348.6,1393.1c141.8-72.8,220.3-205,220.3-367.8c0-208.8-147.5-373.5-354.4-394.6c-183.9-19.2-346.7,70.9-419.5,233.7c-90,195.4,5.8,450.1,203,538.2C3084.3,1441,3264.4,1435.3,3348.6,1393.1z"/><path d="M7087.6,2226.3c-499.9-180-727.9-275.8-1024.8-423.3l-268.2-134.1l-61.3-124.5C5495.9,1059.8,5618.4,410.5,6024.5,0.6c304.6-306.5,664.7-446.3,1091.8-423.3c1009.4,55.6,1633.9,1118.6,1195.2,2038c-78.5,166.6-256.7,383.1-402.2,494.2c-122.6,91.9-346.7,208.8-438.6,227.9C7440,2345.1,7305.9,2304.9,7087.6,2226.3z M7020.5,1385.5c114.9-65.1,187.7-182,197.3-318c9.6-139.8-17.2-226-97.7-308.4c-206.9-212.6-530.6-162.8-668.5,103.4c-57.5,113-42.1,289.2,32.6,398.4C6601,1423.8,6850.1,1483.1,7020.5,1385.5z"/><path d="M4854.2-1273.2c-109.2-55.5-423.3-281.6-465.4-329.5c-34.5-44.1,306.5-398.4,530.6-553.6l80.4-55.5l91.9,61.3c49.8,34.5,191.5,162.8,318,289.2c187.7,187.7,222.2,231.8,203,254.7c-86.2,103.4-536.3,392.7-612.9,392.7C4980.6-1213.8,4915.5-1240.6,4854.2-1273.2z"/><path d="M3812.2-2079.6c-392.7-314.1-710.6-513.3-1011.3-637.8l-103.4-42.1l90-78.5C3174.4-3179,3796.9-3474,4409.8-3610c231.8-51.7,716.4-69,957.7-36.4c643.6,88.1,1405.9,421.4,1844.6,808.3l90,78.5l-103.4,42.1c-300.7,124.5-618.7,323.7-1011.3,637.8L5947.9-1888l-65.1-78.5c-260.5-316-739.4-681.9-890.7-683.8c-136,0-626.3,381.2-875.4,683.8l-65.1,78.5L3812.2-2079.6z"/></g></g>
</svg>