<?xml version="1.0" encoding="utf-8"?>
<!-- Svg Vector Icons : http://www.onlinewebfonts.com/icon -->
<!DOCTYPE svg PUBLIC "-//W3C//DTD SVG 1.1//EN" "http://www.w3.org/Graphics/SVG/1.1/DTD/svg11.dtd">
<svg version="1.1" xmlns="http://www.w3.org/2000/svg" xmlns:xlink="http://www.w3.org/1999/xlink" x="0px" y="0px" viewBox="0 0 1000 1000" enable-background="new 0 0 1000 1000" xml:space="preserve">
<metadata> Svg Vector Icons : http://www.onlinewebfonts.com/icon </metadata>
<g><path d="M10,292.2h83.5v415.6H10V292.2z"/><path d="M145.2,707.8l276.7,289V8.5l-276.7,285V707.8z"/><path d="M669.9,224.7c-15.5-15.5-40.7-15.5-56.2,0c-15.5,15.5-15.5,40.7,0,56.2c120.6,120.6,120.6,316.7,0,437.3c-15.5,15.5-15.5,40.7,0,56.2c7.8,7.8,17.9,11.6,28.1,11.6s20.4-3.9,28.1-11.6c73.5-73.5,114-171.1,114-274.9S743.4,298.2,669.9,224.7z"/><path d="M482.4,393.4c-15.5,15.5-15.5,40.7,0,56.2c27.5,27.5,27.5,72.3,0,99.9c-15.5,15.5-15.5,40.7,0,56.2c7.8,7.8,17.9,11.6,28.1,11.6c10.2,0,20.4-3.9,28.1-11.6c58.5-58.5,58.5-153.8,0-212.4C523.1,377.9,497.9,377.9,482.4,393.4z"/><path d="M939.8,241.7c-34.5-85-85.2-161.4-150.7-226.9c-15.5-15.5-40.7-15.5-56.2,0c-15.5,15.5-15.5,40.7,0,56.2c114.6,114.6,177.7,266.7,177.7,428.5s-63.1,314-177.7,428.5c-15.5,15.5-15.5,40.7,0,56.2c7.8,7.8,17.9,11.6,28.1,11.6c10.2,0,20.4-3.9,28.1-11.6c65.5-65.5,116.2-141.8,150.7-226.8c33.3-82.1,50.2-168.9,50.2-257.9S973.1,323.9,939.8,241.7z"/></g>
</svg>