<?xml version="1.0" ?>
<svg fill="white" height="39" viewBox="0 0 24 24" width="39" xmlns="http://www.w3.org/2000/svg">
    <path clip-rule="evenodd" d="M14.5 12.5H2.5V11.5H14.5V12.5Z" fill="white" fill-rule="evenodd"/>
    <path clip-rule="evenodd"
          d="M11.3536 8.14645L14.8536 11.6465C15.0489 11.8417 15.0489 12.1583 14.8536 12.3536L11.3536 15.8536L10.6465 15.1465L13.7929 12L10.6465 8.85356L11.3536 8.14645Z"
          fill="white" fill-rule="evenodd"/>
    <path clip-rule="evenodd"
          d="M13.4997 4.5C10.5872 4.5 8.06153 6.16003 6.81888 8.58786L5.92871 8.13223C7.33568 5.38334 10.1973 3.5 13.4997 3.5C18.1941 3.5 21.9997 7.30558 21.9997 12C21.9997 16.6944 18.1941 20.5 13.4997 20.5C10.1973 20.5 7.33568 18.6167 5.92871 15.8678L6.81888 15.4121C8.06153 17.84 10.5872 19.5 13.4997 19.5C17.6418 19.5 20.9997 16.1421 20.9997 12C20.9997 7.85786 17.6418 4.5 13.4997 4.5Z"
          fill="white" fill-rule="evenodd"/>
</svg>
