<svg viewBox="0 0 426 183" xmlns="http://www.w3.org/2000/svg">
<path d="M57.929 119.869H44.4739C37.4403 119.869 31.511 124.763 29.9146 131.306L20.885 178.461L31.5657 180.532L37.3817 149.62H42.5148V182.368H72.9081V134.809C72.9093 126.559 66.2141 119.867 57.929 119.867V119.869Z"/>
<path d="M53.7116 113.649C61.9792 113.649 68.6706 106.954 68.6706 98.7069C68.6706 90.4573 61.9792 83.762 53.7116 83.762C45.4265 83.762 38.7351 90.4573 38.7351 98.7069C38.7364 106.957 45.4252 113.649 53.7116 113.649Z"/>
<path d="M125.901 131.307C124.302 124.764 118.373 119.87 111.34 119.87H97.8788C89.5946 119.87 82.9049 126.566 82.9049 134.813L82.9036 182.372H113.294L113.296 149.624H118.426L124.243 180.536L134.924 178.465L125.901 131.307Z"/>
<path d="M102.102 113.649C110.389 113.649 117.081 106.954 117.081 98.7069C117.081 90.4573 110.389 83.762 102.102 83.762C93.8367 83.762 87.1427 90.4573 87.1427 98.7069C87.1415 106.957 93.8367 113.649 102.102 113.649Z"/>
<path d="M109.843 20.8081H118.968L119.293 20.5931L150.412 2.15517C149.034 1.0446 147.356 0.316977 145.5 0.107056L110.169 20.5944L109.843 20.8081Z"/>
<path d="M118.753 41.7237L150.357 60.5053C151.619 59.5067 152.641 58.2231 153.269 56.7181L127.553 41.7237H118.753Z"/>
<path d="M153.833 54.7111C153.928 54.1717 154 53.6273 154 53.0637V41.3985H131.132L153.833 54.7111Z"/>
<path d="M131.678 20.5942H154V9.55849C154 8.88427 153.928 8.22276 153.794 7.58671H153.622L131.678 20.5942Z"/>
<path d="M82.2493 41.7237L50.4033 60.5346C51.8077 61.6413 53.5212 62.3486 55.4038 62.5242L91.3763 41.7212L82.2503 41.7225L82.2493 41.7237Z"/>
<path d="M105.606 62.6247V37.3911H153.999V25.1456H105.606V0.000984192H95.1758V25.1456H46.7532V37.3911H95.1758V62.6247H105.606Z"/>
<path d="M46.7555 53.06C46.7555 53.635 46.7975 54.1909 46.8955 54.7379L69.6471 41.3959L46.7554 41.3972L46.7555 53.06Z"/>
<path d="M46.7555 20.5942H69.1066L47.1613 7.58693H46.9361C46.8026 8.22298 46.7555 8.88322 46.7555 9.55871L46.7555 20.5942Z"/>
<path d="M91.3744 0H60.4164L91.3744 18.1009V0Z"/>
<path d="M60.3519 62.6247H91.375V44.329L60.3519 62.6247Z"/>
<path d="M73.5542 20.8081H82.2464L82.0301 20.5893L50.4397 2.05203C49.1816 3.02902 48.1575 4.28714 47.5176 5.76653L73.2322 20.5893L73.5542 20.8081Z"/>
<path d="M140.37 0H108.866V18.4253L140.37 0Z"/>
<path d="M18.4393 66.7443L9.0498 66.7863C3.76171 66.7863 0 61.3047 0 57.884V25.6054C0 20.3313 4.28831 16.0492 9.579 16.0492H40.6849V57.8837C40.6849 61.3044 44.187 66.7859 49.4777 66.7859H34.8028"/>
<path d="M18.4393 66.7834L34.8024 88.2057V66.744"/>
<path d="M117.134 62.6247V84.0408L140.43 62.6247L108.864 44.0007V62.6247H117.134Z"/>
<path d="M181 63.5904L182.24 54.3955H201.84C205.313 54.3955 208.125 55.2524 210.275 56.9661C212.425 58.6139 213.5 60.822 213.5 63.5904V94.5367C213.5 95.9868 213.128 97.3051 212.384 98.4915C211.639 99.6121 210.647 100.568 209.406 101.359L217.345 123.605H205.437L198.366 103.732H194.645V123.605H182.861V63.5904H181ZM201.095 63.5904H194.645V94.5367H201.095C201.509 94.5367 201.716 94.3719 201.716 94.0424V64.0847C201.716 63.7552 201.509 63.5904 201.095 63.5904Z"/>
<path d="M230.366 103.831V114.311C230.366 114.64 230.573 114.805 230.987 114.805H235.948C236.362 114.805 236.569 114.64 236.569 114.311V96.5141L226.769 93.0537C226.025 92.8559 224.991 92.5264 223.668 92.065C222.345 91.5377 221.146 90.7797 220.071 89.791C219.078 88.8023 218.582 87.451 218.582 85.7373V63.1949C218.582 60.4266 219.657 58.2185 221.807 56.5706C223.957 54.8569 226.769 54 230.242 54H236.693C240.166 54 242.978 54.8569 245.128 56.5706C247.278 58.2185 248.353 60.4266 248.353 63.1949V77.8277L236.569 77.0367V63.6893C236.569 63.3597 236.362 63.1949 235.948 63.1949H230.987C230.573 63.1949 230.366 63.3597 230.366 63.6893V84.3531L240.166 87.8136C240.91 88.0772 241.944 88.4397 243.267 88.9011C244.59 89.3625 245.748 90.0876 246.74 91.0763C247.815 92.065 248.353 93.4162 248.353 95.1299V114.805C248.353 117.573 247.278 119.815 245.128 121.528C242.978 123.176 240.166 124 236.693 124H230.242C226.769 124 223.957 123.176 221.807 121.528C219.657 119.815 218.582 117.573 218.582 114.805V103.831H230.366Z"/>
<path d="M306.898 114.41L305.905 123.605H276.258V63.5904H274.398L275.638 54.3955H288.043V114.41H306.898Z"/>
<path d="M322.402 123.605H310.618L317.317 63.5904H315.084L316.324 54.3955H339.025L346.715 123.605H334.931L333.567 111.74H323.767L322.402 123.605ZM324.759 102.545H332.574L328.729 68.1384L324.759 102.545Z"/>
<path d="M376.43 54.3955H388.215V123.605H376.43L362.785 81.2881V123.605H351.001V63.5904H349.14L350.381 54.3955H363.405L377.174 98.3927L376.43 54.3955Z"/>
<path d="M426 114.41C426 117.178 424.925 119.419 422.775 121.133C420.625 122.781 417.813 123.605 414.34 123.605H405.408C401.935 123.605 399.123 122.781 396.973 121.133C394.823 119.419 393.748 117.178 393.748 114.41V63.5904C393.748 60.822 394.823 58.6139 396.973 56.9661C399.123 55.2524 401.935 54.3955 405.408 54.3955H414.34C417.813 54.3955 420.625 55.2524 422.775 56.9661C424.925 58.6139 426 60.822 426 63.5904V79.4096H414.216V64.0847C414.216 63.7552 414.009 63.5904 413.595 63.5904H406.153C405.739 63.5904 405.532 63.7552 405.532 64.0847V113.915C405.532 114.245 405.739 114.41 406.153 114.41H413.595C414.009 114.41 414.216 114.245 414.216 113.915V93.4492H409.378L410.37 84.2542H426V114.41Z"/>
<line x1="181" y1="25.5" x2="426" y2="25.5" stroke="white" stroke-width="7"/>
<line x1="181" y1="156.5" x2="426" y2="156.5" stroke="white" stroke-width="15"/>
</svg>
