<svg width="40" height="40" viewBox="0 0 40 40" fill="none" xmlns="http://www.w3.org/2000/svg">
<path d="M20 19.9996C21.7967 19.9996 23.5197 19.2859 24.7901 18.0154C26.0605 16.745 26.7742 15.022 26.7742 13.2254C26.7742 11.4287 26.0605 9.7057 24.7901 8.43529C23.5197 7.16488 21.7967 6.45117 20 6.45117C18.2034 6.45117 16.4804 7.16488 15.21 8.43529C13.9396 9.7057 13.2259 11.4287 13.2259 13.2254C13.2259 15.022 13.9396 16.745 15.21 18.0154C16.4804 19.2859 18.2034 19.9996 20 19.9996V19.9996ZM24.5162 13.2254C24.5162 14.4231 24.0404 15.5718 23.1934 16.4188C22.3465 17.2657 21.1978 17.7415 20 17.7415C18.8023 17.7415 17.6536 17.2657 16.8067 16.4188C15.9597 15.5718 15.4839 14.4231 15.4839 13.2254C15.4839 12.0276 15.9597 10.8789 16.8067 10.032C17.6536 9.18504 18.8023 8.70924 20 8.70924C21.1978 8.70924 22.3465 9.18504 23.1934 10.032C24.0404 10.8789 24.5162 12.0276 24.5162 13.2254V13.2254ZM33.5484 31.2899C33.5484 33.5479 31.2904 33.5479 31.2904 33.5479H8.70972C8.70972 33.5479 6.45166 33.5479 6.45166 31.2899C6.45166 29.0318 8.70972 22.2576 20 22.2576C31.2904 22.2576 33.5484 29.0318 33.5484 31.2899ZM31.2904 31.2808C31.2881 30.7254 30.9426 29.0544 29.4117 27.5234C27.9394 26.0512 25.1688 24.5157 20 24.5157C14.8291 24.5157 12.0607 26.0512 10.5884 27.5234C9.05747 29.0544 8.71424 30.7254 8.70972 31.2808H31.2904Z" fill="white"/>
<rect x="0.5" y="0.5" width="39" height="39" rx="17.5" stroke="white"/>
</svg>
